<svg xmlns="http://www.w3.org/2000/svg" viewBox="0 0 1250 500"><rect width="50" height="500" x="0" y="0" fill="#E1BEE7"/><rect width="50" height="500" x="50" y="0" fill="#F8BBD0"/><rect width="50" height="500" x="100" y="0" fill="#FFCDD2"/><rect width="50" height="500" x="150" y="0" fill="#E57373"/><rect width="50" height="500" x="200" y="0" fill="#FF8A80"/><rect width="50" height="500" x="250" y="0" fill="#FFD180"/><rect width="50" height="500" x="300" y="0" fill="#FFF59D"/><rect width="50" height="500" x="350" y="0" fill="#FFFF8D"/><rect width="50" height="500" x="400" y="0" fill="#DCEDC8"/><rect width="50" height="500" x="450" y="0" fill="#C8E6C9"/><rect width="50" height="500" x="500" y="0" fill="#A5D6A7"/><rect width="50" height="500" x="550" y="0" fill="#81C784"/><rect width="50" height="500" x="600" y="0" fill="#B2EBF2"/><rect width="50" height="500" x="650" y="0" fill="#80DEEA"/><rect width="50" height="500" x="700" y="0" fill="#4FC3F7"/><rect width="50" height="500" x="750" y="0" fill="#64B5F6"/><rect width="50" height="500" x="800" y="0" fill="#E6EE9C"/><rect width="50" height="500" x="850" y="0" fill="#FFAB91"/><rect width="50" height="500" x="900" y="0" fill="#BCAAA4"/><rect width="50" height="500" x="950" y="0" fill="#B0BEC5"/><rect width="50" height="500" x="1000" y="0" fill="#B39DDB"/><rect width="50" height="500" x="1050" y="0" fill="#CE93D8"/><rect width="50" height="500" x="1100" y="0" fill="#F48FB1"/><rect width="50" height="500" x="1150" y="0" fill="#F06292"/><rect width="50" height="500" x="1200" y="0" fill="#FF80AB"/></svg>